<svg width="109" height="48" viewBox="0 0 109 48" fill="none" xmlns="http://www.w3.org/2000/svg">
<path d="M37.8418 36.258C38.8036 39.7454 41.4118 41.4891 45.6663 41.4891C48.404 41.4891 50.4757 40.5616 51.8815 38.7066L57.6528 42.0455C54.9152 46.0152 50.8827 48 45.5553 48C40.9679 48 37.2868 46.6088 34.5122 43.8263C31.7375 41.0439 30.3502 37.538 30.3502 33.3086C30.3502 29.1164 31.719 25.6291 34.4567 22.8466C37.1943 20.0271 40.7089 18.6173 45.0004 18.6173C49.0699 18.6173 52.418 20.0271 55.0447 22.8466C57.7083 25.6662 59.0402 29.1535 59.0402 33.3086C59.0402 34.2361 58.9477 35.2193 58.7627 36.258H37.8418ZM37.7308 30.6931H51.8815C51.4746 28.8011 50.6237 27.3913 49.3289 26.4638C48.071 25.5363 46.6282 25.0726 45.0004 25.0726C43.0766 25.0726 41.4858 25.5734 40.228 26.5751C38.9701 27.5397 38.1377 28.9124 37.7308 30.6931Z" fill="#111827"/>
<path d="M81.6133 19.3964H88.772V47.2209H81.6133V43.9376C79.4676 46.6459 76.4525 48 72.5679 48C68.8684 48 65.6868 46.5902 63.0231 43.7707C60.3964 40.914 59.0831 37.4267 59.0831 33.3086C59.0831 29.1906 60.3964 25.7218 63.0231 22.9023C65.6868 20.0456 68.8684 18.6173 72.5679 18.6173C76.4525 18.6173 79.4676 19.9714 81.6133 22.6797V19.3964ZM68.406 38.9849C69.8488 40.4317 71.68 41.1552 73.8998 41.1552C76.1195 41.1552 77.9508 40.4317 79.3936 38.9849C80.8734 37.5009 81.6133 35.6088 81.6133 33.3086C81.6133 31.0085 80.8734 29.135 79.3936 27.6881C77.9508 26.2041 76.1195 25.4621 73.8998 25.4621C71.68 25.4621 69.8488 26.2041 68.406 27.6881C66.9631 29.135 66.2417 31.0085 66.2417 33.3086C66.2417 35.6088 66.9631 37.5009 68.406 38.9849Z" fill="#111827"/>
<path d="M107.84 26.2969H101.569V37.8719C101.569 38.8365 101.809 39.5413 102.29 39.9865C102.771 40.4317 103.474 40.6914 104.399 40.7656C105.324 40.8027 106.471 40.7842 107.84 40.71V47.2209C102.919 47.7774 99.4415 47.3137 97.4068 45.8297C95.409 44.3457 94.4102 41.6931 94.4102 37.8719V26.2969H89.5823V19.3964H94.4102V13.7758L101.569 11.6055V19.3964H107.84V26.2969Z" fill="#111827"/>
<path d="M16.1485 18.6173C19.8851 18.6173 23.0667 20.0456 25.6934 22.9023C28.357 25.7218 29.6889 29.1906 29.6889 33.3086C29.6889 37.4267 28.357 40.914 25.6934 43.7707C23.0667 46.5902 19.8851 48 16.1485 48C12.264 48 9.26737 46.6459 7.15863 43.9376V47.2209H0V8.26656H7.15863V22.6797C9.26737 19.9714 12.264 18.6173 16.1485 18.6173ZM9.32286 38.9849C10.7657 40.4317 12.597 41.1552 14.8167 41.1552C17.0364 41.1552 18.8677 40.4317 20.3105 38.9849C21.7903 37.5009 22.5303 35.6088 22.5303 33.3086C22.5303 31.0085 21.7903 29.135 20.3105 27.6881C18.8677 26.2041 17.0364 25.4621 14.8167 25.4621C12.597 25.4621 10.7657 26.2041 9.32286 27.6881C7.88004 29.135 7.15863 31.0085 7.15863 33.3086C7.15863 35.6088 7.88004 37.5009 9.32286 38.9849Z" fill="url(#paint0_linear_1608_28486)"/>
<path fill-rule="evenodd" clip-rule="evenodd" d="M103.859 8.15548L106.228 13.7449C106.412 14.1815 106.974 14.2948 107.433 14.1636C107.893 14.0337 108.206 13.6477 108.236 13.1737L108.997 1.33725C109.026 0.876323 108.823 0.468169 108.435 0.212379C108.05 -0.0421225 107.59 -0.0687669 107.174 0.137178L96.4841 5.43384C96.0554 5.64557 95.8191 6.08235 95.8766 6.5536C95.9331 7.02543 96.2568 7.49306 96.7337 7.49231L102.842 7.48591C103.296 7.48468 103.684 7.7407 103.859 8.15548Z" fill="#FF0053"/>
<defs>
<linearGradient id="paint0_linear_1608_28486" x1="37.2417" y1="44.8421" x2="37.2417" y2="-2.66262e-06" gradientUnits="userSpaceOnUse">
<stop stop-color="#4D2CE3"/>
<stop offset="1" stop-color="#785AFF"/>
</linearGradient>
</defs>
</svg>
